<svg width="37" height="17" viewBox="0 0 37 17" fill="none" xmlns="http://www.w3.org/2000/svg">
<path d="M3.02924 7.5422C3.02924 6.68925 2.35114 5.9978 1.51463 5.9978C0.678129 5.9978 0 6.68925 0 7.5422V9.19523C0 10.0482 0.678129 10.7396 1.51463 10.7396C2.35114 10.7396 3.02924 10.0482 3.02924 9.19523V7.5422Z" fill="#69FEFF"/>
<path d="M7.2226 5.84713C7.2226 4.99419 6.5445 4.30273 5.70799 4.30273C4.87149 4.30273 4.19336 4.99419 4.19336 5.84713V10.8912C4.19336 11.7442 4.87149 12.4356 5.70799 12.4356C6.5445 12.4356 7.2226 11.7442 7.2226 10.8912V5.84713Z" fill="#69FEFF"/>
<path d="M16.7559 9.19535C16.7559 10.0483 17.434 10.7397 18.2705 10.7397C19.107 10.7397 19.7852 10.0483 19.7852 9.19535V7.54232C19.7852 6.68937 19.107 5.99792 18.2705 5.99792C17.434 5.99792 16.7559 6.68937 16.7559 7.54232V9.19535Z" fill="#69FEFF"/>
<path d="M34.9496 10.499H35.1071C35.9001 10.499 36.543 9.84352 36.543 9.03491V7.69832C36.543 6.88972 35.9001 6.23421 35.1071 6.23421H34.9496C34.1566 6.23421 33.5137 6.88972 33.5137 7.69832V9.03491C33.5137 9.84352 34.1566 10.499 34.9496 10.499Z" fill="#69FEFF"/>
<path d="M12.5723 10.8911C12.5723 11.7441 13.2505 12.4355 14.087 12.4355C14.9235 12.4355 15.6016 11.7441 15.6016 10.8911V5.84705C15.6016 4.9941 14.9235 4.30265 14.087 4.30265C13.2505 4.30265 12.5723 4.9941 12.5723 5.84705V10.8911Z" fill="#69FEFF"/>
<path d="M11.4082 3.70285C11.4082 2.8499 10.73 2.15845 9.89354 2.15845C9.05704 2.15845 8.37891 2.8499 8.37891 3.70285V13.0306C8.37891 13.8836 9.05704 14.575 9.89354 14.575C10.73 14.575 11.4082 13.8836 11.4082 13.0306V3.70285Z" fill="#69FEFF"/>
<path d="M30.7562 11.5615H30.9137C31.7068 11.5615 32.3496 10.906 32.3496 10.0974V6.6355C32.3496 5.82689 31.7068 5.17139 30.9137 5.17139H30.7562C29.9632 5.17139 29.3204 5.82689 29.3204 6.6355V10.0974C29.3204 10.906 29.9632 11.5615 30.7562 11.5615Z" fill="#69FEFF"/>
<path d="M26.5707 13.8477H26.7282C27.5212 13.8477 28.1641 13.1922 28.1641 12.3835V4.34983C28.1641 3.54123 27.5212 2.88572 26.7282 2.88572H26.5707C25.7777 2.88572 25.1348 3.54123 25.1348 4.34983V12.3835C25.1348 13.1922 25.7777 13.8477 26.5707 13.8477Z" fill="#69FEFF"/>
<path d="M22.5387 0H22.3812C21.5882 0 20.9453 0.655504 20.9453 1.46411V15.2787C20.9453 16.0873 21.5882 16.7428 22.3812 16.7428H22.5387C23.3317 16.7428 23.9746 16.0873 23.9746 15.2787V1.46411C23.9746 0.655504 23.3317 0 22.5387 0Z" fill="#69FEFF"/>
</svg>
